<svg width="1176" height="220" viewBox="0 0 1176 220" fill="none" xmlns="http://www.w3.org/2000/svg">
<path d="M93.1 158.7L80.1 171.8L0 104.9L80.1 38L93.1 51.2L28.1 104.6L93.1 158.7Z" fill="white"/>
<path d="M223.2 67.1C225.4 69.9 227.2 73.1 228.4 76.8C229.6 80.5 230.2 84.5 230.2 88.8C230.2 95 229.1 100.7 226.8 105.8C224.5 110.9 221.3 115.3 217.2 119C213.1 122.7 208.1 125.5 202.4 127.5C196.6 129.5 190.3 130.5 183.4 130.5C178.4 130.5 173.7 130 169.3 128.9C164.9 127.8 161.5 126.5 158.9 124.9C157.4 127.1 156.1 129.2 155.1 131.2C154.1 133.2 153.5 135.4 153.5 137.9C153.5 140.9 154.9 143.4 157.9 145.4C160.8 147.4 164.6 148.5 169.4 148.6L200.9 149.8C206.9 150 212.4 150.7 217.4 152.1C222.4 153.5 226.8 155.4 230.4 157.9C234 160.4 236.8 163.6 238.9 167.3C240.9 171 241.9 175.4 241.9 180.3C241.9 185.6 240.7 190.7 238.4 195.4C236.1 200.2 232.5 204.4 227.7 208C222.9 211.6 216.8 214.5 209.4 216.6C202 218.7 193.2 219.8 183 219.8C173.3 219.8 165.1 219 158.3 217.5C151.5 215.9 145.9 213.8 141.5 211.1C137.1 208.4 133.9 205.1 132 201.3C130 197.5 129 193.4 129 188.8C129 183 130.4 177.9 133.1 173.5C135.8 169.1 140 164.9 145.6 160.9C143.5 159.9 141.7 158.8 140.2 157.3C138.7 155.9 137.5 154.3 136.5 152.6C135.5 150.9 134.8 149.1 134.4 147.2C134 145.3 133.7 143.4 133.7 141.6C133.7 136.4 134.9 131.7 137.3 127.4C139.7 123.1 142.6 119.1 145.9 115.2C144.4 113.4 143.1 111.6 141.9 109.8C140.7 108.1 139.8 106.2 138.9 104.1C138.1 102.1 137.4 99.9 137 97.5C136.6 95.2 136.3 92.5 136.3 89.5C136.3 83.3 137.4 77.6 139.7 72.5C142 67.4 145.1 63 149.2 59.3C153.3 55.6 158.2 52.8 164 50.8C169.8 48.8 176.1 47.8 183.1 47.8C186 47.8 188.9 48 191.6 48.4C194.3 48.8 196.7 49.3 198.8 50H242.2V66.9H223.2V67.1ZM151.2 187.2C151.2 192.8 154.1 197 160 199.5C165.9 202.1 174.1 203.4 184.6 203.4C191.2 203.4 196.7 202.8 201.2 201.6C205.7 200.4 209.3 198.8 212.1 196.9C214.8 195 216.8 192.7 218 190.2C219.2 187.7 219.8 185.1 219.8 182.5C219.8 177.7 217.8 174.1 213.8 171.8C209.8 169.5 203.7 168.1 195.6 167.7L164.4 166.6C161.8 168.4 159.6 170.1 157.9 171.7C156.2 173.4 154.9 175.1 153.9 176.8C152.9 178.5 152.3 180.2 151.9 181.9C151.4 183.7 151.2 185.5 151.2 187.2ZM157.5 89.3C157.5 93.1 158.1 96.6 159.4 99.8C160.7 103 162.5 105.7 164.8 107.9C167.1 110.1 169.8 111.9 173 113.1C176.1 114.3 179.6 114.9 183.4 114.9C187.5 114.9 191.2 114.2 194.4 112.8C197.6 111.4 200.3 109.5 202.5 107.1C204.7 104.7 206.4 102 207.5 98.9C208.7 95.8 209.2 92.6 209.2 89.2C209.2 85.4 208.6 81.9 207.3 78.7C206 75.5 204.2 72.8 201.9 70.6C199.6 68.4 196.9 66.6 193.7 65.4C190.6 64.2 187.1 63.6 183.3 63.6C179.2 63.6 175.5 64.3 172.3 65.7C169.1 67.1 166.4 69 164.2 71.4C162 73.7 160.3 76.5 159.2 79.6C158.1 82.8 157.5 86 157.5 89.3Z" fill="white"/>
<path d="M276.2 50.2H295.2L295.8 72.3C302.9 63.8 309.9 57.6 316.7 53.8C323.6 50 330.5 48.1 337.5 48.1C349.9 48.1 359.3 52.1 365.7 60.1C372.1 68.1 375.1 80.1 374.6 95.9H353.6C353.8 85.4 352.3 77.8 349 73.1C345.7 68.4 340.9 66 334.5 66C331.7 66 328.9 66.5 326.1 67.5C323.3 68.5 320.4 70.1 317.4 72.3C314.4 74.5 311.3 77.3 307.9 80.7C304.6 84.1 301 88.3 297.2 93.1V170H276.2V50.2Z" fill="white"/>
<path d="M446.4 67.4H411V50.2H467.4V152.6H503V169.9H407V152.6H446.4V67.4ZM453.6 0C455.9 0 458.1 0.4 460 1.3C462 2.1 463.7 3.3 465.2 4.8C466.7 6.3 467.8 8 468.7 10C469.5 11.9 470 14.1 470 16.4C470 18.6 469.6 20.7 468.7 22.7C467.9 24.7 466.7 26.4 465.2 27.9C463.7 29.4 462 30.6 460 31.4C458 32.2 455.9 32.7 453.6 32.7C451.3 32.7 449.1 32.3 447.2 31.4C445.2 30.6 443.5 29.4 442 27.9C440.5 26.4 439.4 24.6 438.5 22.7C437.7 20.7 437.2 18.6 437.2 16.4C437.2 14.1 437.6 12 438.5 10C439.3 8.1 440.5 6.3 442 4.8C443.5 3.3 445.2 2.1 447.2 1.3C449.2 0.4 451.3 0 453.6 0Z" fill="white"/>
<path d="M533.8 112.6C533.8 102.4 535.2 93.4 538 85.5C540.8 77.6 544.7 70.9 549.9 65.5C555 60.1 561.2 55.9 568.4 53.1C575.6 50.3 583.6 48.9 592.4 48.9C596.2 48.9 600 49.1 603.7 49.6C607.4 50.1 611 50.8 614.6 51.9V1.4H635.5V169.9H616.9L616.2 147.2C610.4 155.6 604.1 161.9 597.4 165.9C590.6 170 583.3 172 575.5 172C568.7 172 562.6 170.6 557.4 167.7C552.2 164.8 547.9 160.8 544.4 155.6C540.9 150.4 538.3 144.1 536.6 136.8C534.6 129.6 533.8 121.5 533.8 112.6ZM555 111.3C555 125.8 557.1 136.6 561.4 143.7C565.7 150.8 571.7 154.4 579.5 154.4C584.7 154.4 590.3 152.1 596.1 147.4C601.9 142.7 608.1 135.8 614.5 126.5V70.8C611.1 69.2 607.3 68 603.2 67.2C599.1 66.4 595 65.9 590.9 65.9C579.6 65.9 570.8 69.6 564.5 76.9C558.2 84.2 555 95.7 555 111.3Z" fill="white"/>
<path d="M776.5 107.9C776.5 117.8 775.1 126.7 772.4 134.6C769.7 142.4 765.8 149.1 760.7 154.5C755.7 159.9 749.5 164.1 742.3 167C735.1 169.9 726.9 171.4 717.9 171.4C710.8 171.4 703.6 170.7 696.2 169.4C688.8 168 681.5 165.9 674.3 163V1.4H695.1V47.8L694.1 70C700.1 62 706.4 56.3 713.2 53C720 49.7 727.3 48.1 735.1 48.1C741.9 48.1 747.9 49.5 753.1 52.4C758.3 55.3 762.6 59.3 766.1 64.5C769.6 69.7 772.2 76 774 83.3C775.6 90.7 776.5 98.9 776.5 107.9ZM755.2 108.9C755.2 102.6 754.7 96.9 753.8 91.6C752.9 86.4 751.4 81.9 749.4 78.1C747.4 74.4 744.9 71.4 741.8 69.3C738.7 67.2 735 66.1 730.7 66.1C728.1 66.1 725.4 66.5 722.7 67.4C720 68.2 717.2 69.6 714.3 71.6C711.4 73.5 708.3 76.1 705.1 79.4C701.9 82.7 698.4 86.6 694.8 91.4V149.5C698.9 151.1 703 152.3 707.2 153.3C711.4 154.2 715.4 154.7 719.2 154.7C724 154.7 728.5 153.9 732.9 152.4C737.2 150.9 741 148.4 744.3 144.8C747.6 141.3 750.2 136.6 752.2 130.7C754.3 124.8 755.2 117.5 755.2 108.9Z" fill="white"/>
<path d="M912.6 109.1C912.6 118.4 911.3 126.9 908.7 134.7C906.1 142.5 902.3 149.1 897.4 154.6C892.5 160.1 886.5 164.4 879.4 167.5C872.3 170.6 864.3 172.1 855.3 172.1C846.7 172.1 839 170.8 832.2 168.1C825.4 165.4 819.6 161.5 814.9 156.4C810.2 151.2 806.6 144.8 804 137.2C801.5 129.6 800.2 120.8 800.2 110.8C800.2 101.5 801.5 93 804.1 85.3C806.7 77.6 810.5 71 815.4 65.5C820.3 60 826.3 55.7 833.4 52.6C840.5 49.5 848.5 48 857.5 48C866.1 48 873.8 49.3 880.6 52C887.4 54.7 893.2 58.6 897.9 63.7C902.6 68.8 906.2 75.2 908.8 82.8C911.4 90.5 912.6 99.3 912.6 109.1ZM891.4 110.1C891.4 102.7 890.6 96.2 889 90.7C887.4 85.2 885 80.6 882 76.9C879 73.2 875.3 70.4 871 68.6C866.7 66.7 861.8 65.8 856.5 65.8C850.3 65.8 845 67 840.6 69.4C836.2 71.8 832.6 75.1 829.7 79.1C826.9 83.2 824.8 87.9 823.5 93.2C822.2 98.5 821.5 104.2 821.5 110.1C821.5 117.5 822.3 124 823.9 129.5C825.5 135.1 827.9 139.7 830.9 143.4C833.9 147.1 837.6 149.9 841.9 151.7C846.2 153.6 851 154.5 856.4 154.5C862.6 154.5 867.9 153.3 872.3 150.9C876.7 148.5 880.3 145.2 883.2 141.2C886 137.1 888.1 132.4 889.4 127.1C890.8 121.7 891.4 116 891.4 110.1Z" fill="white"/>
<path d="M1050.6 169.9H1023.1L990.8 124.2L958.8 169.9H932L978.4 109.8L934.2 50.2H960.8L992.3 96.2L1023.2 50.2H1048.8L1003.8 110.3L1050.6 169.9Z" fill="white"/>
<path d="M1082.8 51.3L1095.7 38.1L1175.8 105L1095.7 171.9L1082.8 158.8L1147.8 105.3L1082.8 51.3Z" fill="white"/>
</svg>
